<?xml version="1.0" encoding="UTF-8" standalone="no" ?>
<!DOCTYPE svg PUBLIC "-//W3C//DTD SVG 1.1//EN" "http://www.w3.org/Graphics/SVG/1.1/DTD/svg11.dtd">
<svg xmlns="http://www.w3.org/2000/svg" xmlns:xlink="http://www.w3.org/1999/xlink" version="1.1" width="100" height="100" viewBox="0 0 500 500" xml:space="preserve">
<desc>Created with Fabric.js 4.6.0</desc>
<defs>
</defs>
<g transform="matrix(2.18 0 0 2.18 79.79 35.77)" id="Z9ZoneWjZzb_Xt78n1RCd"  >
<path style="stroke: rgb(0,0,0); stroke-width: 0; stroke-dasharray: none; stroke-linecap: butt; stroke-dashoffset: 0; stroke-linejoin: miter; stroke-miterlimit: 4; fill: none; fill-rule: nonzero; opacity: 1;" vector-effect="non-scaling-stroke"  transform=" translate(0, 0)" d="M -49 -28.21106 C -49 -39.69247 -39.69247 -49 -28.21106 -49 L 28.21106 -49 L 28.21106 -49 C 39.69247 -49 49 -39.69247 49 -28.21106 L 49 28.21106 L 49 28.21106 C 49 39.69247 39.69247 49 28.21106 49 L -28.21106 49 L -28.21106 49 C -39.69247 49 -49 39.69247 -49 28.21106 z" stroke-linecap="round" />
</g>
<g transform="matrix(1.84 0 0 2.18 147.03 156.53)" id="uhDOBq5p6mSlNB5u3ks7n"  >
<path style="stroke: rgb(0,0,0); stroke-width: 3; stroke-dasharray: none; stroke-linecap: butt; stroke-dashoffset: 0; stroke-linejoin: miter; stroke-miterlimit: 4; fill: none; fill-rule: nonzero; opacity: 1;" vector-effect="non-scaling-stroke"  transform=" translate(0, 0)" d="M -20 -42.32883 C -20 -46.28936 -16.20101 -49.5 -11.51472 -49.5 L 11.51472 -49.5 L 11.51472 -49.5 C 16.20101 -49.5 20 -46.28936 20 -42.328829999999996 L 20 42.32883000000001 L 20 42.32883000000001 C 20 46.28936000000001 16.20101 49.500000000000014 11.51472 49.500000000000014 L -11.51472 49.500000000000014 L -11.51472 49.500000000000014 C -16.20101 49.500000000000014 -20 46.289360000000016 -20 42.32883000000001 z" stroke-linecap="round" />
</g>
<g transform="matrix(1.85 0 0 2.66 227.33 132.34)" id="xDuuWffE4RR5wxkFnLzIJ"  >
<path style="stroke: rgb(0,0,0); stroke-width: 3; stroke-dasharray: none; stroke-linecap: butt; stroke-dashoffset: 0; stroke-linejoin: miter; stroke-miterlimit: 4; fill: none; fill-rule: nonzero; opacity: 1;" vector-effect="non-scaling-stroke"  transform=" translate(0, 0)" d="M -20 -42.32883 C -20 -46.28936 -15.37423 -49.5 -9.66805 -49.5 L 9.668060000000002 -49.5 L 9.668060000000002 -49.5 C 15.374240000000002 -49.5 20.000010000000003 -46.28936 20.000010000000003 -42.328829999999996 L 20.000010000000003 42.32883000000001 L 20.000010000000003 42.32883000000001 C 20.000010000000003 46.28936000000001 15.374240000000004 49.500000000000014 9.668060000000002 49.500000000000014 L -9.66805 49.500000000000014 L -9.66805 49.500000000000014 C -15.374229999999999 49.500000000000014 -20 46.289360000000016 -20 42.32883000000001 z" stroke-linecap="round" />
</g>
<g transform="matrix(1.85 0 0 1.83 388.34 173.6)" id="l30kEOp3Xa5GdTpsA1aaQ"  >
<path style="stroke: rgb(0,0,0); stroke-width: 3; stroke-dasharray: none; stroke-linecap: butt; stroke-dashoffset: 0; stroke-linejoin: miter; stroke-miterlimit: 4; fill: none; fill-rule: nonzero; opacity: 1;" vector-effect="non-scaling-stroke"  transform=" translate(0, 0)" d="M -20 -42.32883 C -20 -46.28936 -16.82128 -49.5 -12.90013 -49.5 L 12.900119999999998 -49.5 L 12.900119999999998 -49.5 C 16.82127 -49.5 19.999989999999997 -46.28936 19.999989999999997 -42.328829999999996 L 19.999989999999997 42.32883000000001 L 19.999989999999997 42.32883000000001 C 19.999989999999997 46.28936000000001 16.82127 49.500000000000014 12.900119999999998 49.500000000000014 L -12.90013 49.500000000000014 L -12.90013 49.500000000000014 C -16.82128 49.500000000000014 -20 46.289360000000016 -20 42.32883000000001 z" stroke-linecap="round" />
</g>
<g transform="matrix(1.85 0 0 2.18 307.83 156.53)" id="EqM_re2Gr2V9AqGvvWSqk"  >
<path style="stroke: rgb(0,0,0); stroke-width: 3; stroke-dasharray: none; stroke-linecap: butt; stroke-dashoffset: 0; stroke-linejoin: miter; stroke-miterlimit: 4; fill: none; fill-rule: nonzero; opacity: 1;" vector-effect="non-scaling-stroke"  transform=" translate(0, 0)" d="M -20 -42.32883 C -20 -46.28936 -16.22277 -49.5 -11.56333 -49.5 L 11.56333 -49.5 L 11.56333 -49.5 C 16.22278 -49.5 20 -46.28936 20 -42.328829999999996 L 20 42.32883000000001 L 20 42.32883000000001 C 20 46.28936000000001 16.22277 49.500000000000014 11.56333 49.500000000000014 L -11.56333 49.500000000000014 L -11.56333 49.500000000000014 C -16.22278 49.500000000000014 -20 46.289360000000016 -20 42.32883000000001 z" stroke-linecap="round" />
</g>
<g transform="matrix(1.8 0 0 3.13 267.79 378.79)" id="rHPbbIcf8g9-ds-6_9_PR"  >
<path style="stroke: rgb(0,0,0); stroke-width: 3; stroke-dasharray: none; stroke-linecap: butt; stroke-dashoffset: 0; stroke-linejoin: miter; stroke-miterlimit: 4; fill: none; fill-rule: nonzero; opacity: 1;" vector-effect="non-scaling-stroke"  transform=" translate(0, 0)" d="M -87.5 -22.38839 C -87.5 -25.60059 -85.28095 -28.681220000000003 -81.33101 -30.95259 C -77.38107000000001 -33.22396 -72.02381000000001 -34.5 -66.43775000000001 -34.5 L 66.43774999999998 -34.5 L 66.43774999999998 -34.5 C 72.02380999999998 -34.5 77.38106999999998 -33.22396 81.33100999999998 -30.95259 C 85.28094999999998 -28.68122 87.49999999999997 -25.60059 87.49999999999997 -22.38839 L 87.49999999999997 22.388399999999997 L 87.49999999999997 22.388399999999997 C 87.49999999999997 29.07745 78.07010999999997 34.5 66.43774999999997 34.5 L -66.43775000000002 34.5 L -66.43775000000002 34.5 C -78.07011000000003 34.5 -87.50000000000003 29.07745 -87.50000000000003 22.3884 z" stroke-linecap="round" />
</g>
<g transform="matrix(1.85 0 0 1.83 66.73 317.74)" id="mVeKc5u7dvf2zq8gBHK79"  >
<path style="stroke: rgb(0,0,0); stroke-width: 3; stroke-dasharray: none; stroke-linecap: butt; stroke-dashoffset: 0; stroke-linejoin: miter; stroke-miterlimit: 4; fill: none; fill-rule: nonzero; opacity: 1;" vector-effect="non-scaling-stroke"  transform=" translate(0, 0)" d="M -20 -42.31561 C -20 -46.28344 -16.82128 -49.50001 -12.90013 -49.50001 L 12.900119999999998 -49.50001 L 12.900119999999998 -49.50001 C 16.82127 -49.50001 19.999989999999997 -46.28345 19.999989999999997 -42.31561000000001 L 19.999989999999997 42.31559999999999 L 19.999989999999997 42.31559999999999 C 19.999989999999997 46.28342999999999 16.82127 49.499999999999986 12.900119999999998 49.499999999999986 L -12.90013 49.499999999999986 L -12.90013 49.499999999999986 C -16.82128 49.499999999999986 -20 46.283439999999985 -20 42.31559999999999 z" stroke-linecap="round" />
</g>
</svg>