<?xml version="1.0" encoding="UTF-8" standalone="no" ?>
<!DOCTYPE svg PUBLIC "-//W3C//DTD SVG 1.1//EN" "http://www.w3.org/Graphics/SVG/1.1/DTD/svg11.dtd">
<svg xmlns="http://www.w3.org/2000/svg" xmlns:xlink="http://www.w3.org/1999/xlink" version="1.1" width="100" height="100" viewBox="0 0 500 500" xml:space="preserve">
<desc>Created with Fabric.js 4.6.0</desc>
<defs>
</defs>
<g transform="matrix(1.96 0 0 1.96 104.23 113.05)" id="VIAfAhJyvtPfKzSugJrvC"  >
<path style="stroke: rgb(0,0,0); stroke-width: 3; stroke-dasharray: none; stroke-linecap: butt; stroke-dashoffset: 0; stroke-linejoin: miter; stroke-miterlimit: 4; fill: none; fill-rule: nonzero; opacity: 1;" vector-effect="non-scaling-stroke"  transform=" translate(0, 0)" d="M -27 -44.54487 C -27 -50.87136 -21.87136 -56 -15.54487 -56 L 15.54487 -56 L 15.54487 -56 C 21.87136 -56 27 -50.87136 27 -44.54487 L 27 44.54487 L 27 44.54487 C 27 50.87136 21.87136 56 15.54487 56 L -15.54487 56 L -15.54487 56 C -21.87136 56 -27 50.87136 -27 44.54487 z" stroke-linecap="round" />
</g>
<g transform="matrix(1.96 0 0 1.96 327.47 113.05)" id="pRp8THtJMkwUjCMuU5gG_"  >
<path style="stroke: rgb(0,0,0); stroke-width: 3; stroke-dasharray: none; stroke-linecap: butt; stroke-dashoffset: 0; stroke-linejoin: miter; stroke-miterlimit: 4; fill: none; fill-rule: nonzero; opacity: 1;" vector-effect="non-scaling-stroke"  transform=" translate(0, 0)" d="M -27 -44.54487 C -27 -50.87136 -21.87136 -56 -15.54487 -56 L 15.54487 -56 L 15.54487 -56 C 21.87136 -56 27 -50.87136 27 -44.54487 L 27 44.54487 L 27 44.54487 C 27 50.87136 21.87136 56 15.54487 56 L -15.54487 56 L -15.54487 56 C -21.87136 56 -27 50.87136 -27 44.54487 z" stroke-linecap="round" />
</g>
<g transform="matrix(1.96 0 0 1.96 215.85 113.05)" id="FF9MrMfXDyL6TuUVlQStp"  >
<path style="stroke: rgb(0,0,0); stroke-width: 3; stroke-dasharray: none; stroke-linecap: butt; stroke-dashoffset: 0; stroke-linejoin: miter; stroke-miterlimit: 4; fill: none; fill-rule: nonzero; opacity: 1;" vector-effect="non-scaling-stroke"  transform=" translate(0, 0)" d="M -27 -44.54487 C -27 -50.87136 -21.87136 -56 -15.54487 -56 L 15.54487 -56 L 15.54487 -56 C 21.87136 -56 27 -50.87136 27 -44.54487 L 27 44.54487 L 27 44.54487 C 27 50.87136 21.87136 56 15.54487 56 L -15.54487 56 L -15.54487 56 C -21.87136 56 -27 50.87136 -27 44.54487 z" stroke-linecap="round" />
</g>
<g transform="matrix(5.8 0 0 1.05 160.04 225.65)" id="2U0_8e3lx8_abeBAnanoF"  >
<path style="stroke: rgb(0,0,0); stroke-width: 3; stroke-dasharray: none; stroke-linecap: butt; stroke-dashoffset: 0; stroke-linejoin: miter; stroke-miterlimit: 4; fill: none; fill-rule: nonzero; opacity: 1;" vector-effect="non-scaling-stroke"  transform=" translate(0, 0)" d="M -27 -22.06204 C -27 -40.80546 -24.24215 -56 -20.84016 -56 L 20.840149999999998 -56 L 20.840149999999998 -56 C 24.24214 -56 26.999989999999997 -40.80546 26.999989999999997 -22.062040000000003 L 26.999989999999997 22.06203 L 26.999989999999997 22.06203 C 26.999989999999997 40.80545 24.242139999999996 55.99999 20.840149999999998 55.99999 L -20.84016 55.99999 L -20.84016 55.99999 C -24.242150000000002 55.99999 -27 40.80544999999999 -27 22.06203 z" stroke-linecap="round" />
</g>
<g transform="matrix(1.96 0 0 1.96 439.09 113.05)" id="ltEuvVoGnOKY4wvR9rJbF"  >
<path style="stroke: rgb(0,0,0); stroke-width: 3; stroke-dasharray: none; stroke-linecap: butt; stroke-dashoffset: 0; stroke-linejoin: miter; stroke-miterlimit: 4; fill: none; fill-rule: nonzero; opacity: 1;" vector-effect="non-scaling-stroke"  transform=" translate(0, 0)" d="M -27 -44.54487 C -27 -50.87136 -21.87136 -56 -15.54487 -56 L 15.54487 -56 L 15.54487 -56 C 21.87136 -56 27 -50.87136 27 -44.54487 L 27 44.54487 L 27 44.54487 C 27 50.87136 21.87136 56 15.54487 56 L -15.54487 56 L -15.54487 56 C -21.87136 56 -27 50.87136 -27 44.54487 z" stroke-linecap="round" />
</g>
<g transform="matrix(1.96 0 0 1.96 268.72 285.38)" id="TGVlVWkiIb3sOCRdJPyOp"  >
<path style="stroke: rgb(0,0,0); stroke-width: 3; stroke-dasharray: none; stroke-linecap: butt; stroke-dashoffset: 0; stroke-linejoin: miter; stroke-miterlimit: 4; fill: none; fill-rule: nonzero; opacity: 1;" vector-effect="non-scaling-stroke"  transform=" translate(0, 0)" d="M -109 -34.54416 C -109 -48.60303 -97.60303 -60 -83.54416 -60 L 83.54416 -60 L 83.54416 -60 C 97.60303 -60 109 -48.603030000000004 109 -34.544160000000005 L 109 34.54415999999999 L 109 34.54415999999999 C 109 48.60302999999999 97.60303 59.999999999999986 83.54416 59.999999999999986 L -83.54416 59.999999999999986 L -83.54416 59.999999999999986 C -97.60303 59.999999999999986 -109 48.60302999999999 -109 34.54415999999999 z" stroke-linecap="round" />
</g>
</svg>