<?xml version="1.0" encoding="UTF-8" standalone="no" ?>
<!DOCTYPE svg PUBLIC "-//W3C//DTD SVG 1.1//EN" "http://www.w3.org/Graphics/SVG/1.1/DTD/svg11.dtd">
<svg xmlns="http://www.w3.org/2000/svg" xmlns:xlink="http://www.w3.org/1999/xlink" version="1.1" width="100" height="100" viewBox="0 0 500 500" xml:space="preserve">
<desc>Created with Fabric.js 4.6.0</desc>
<defs>
</defs>
<g transform="matrix(1.36 0.26 -0.35 1.79 231.26 150)" id="-VlY3glBrpeaAYa4EFkGD"  >
<path style="stroke: rgb(0,0,0); stroke-width: 3; stroke-dasharray: none; stroke-linecap: butt; stroke-dashoffset: 0; stroke-linejoin: miter; stroke-miterlimit: 4; fill: none; fill-rule: nonzero; opacity: 1;" vector-effect="non-scaling-stroke"  transform=" translate(0, 0)" d="M -27 -55.83689 C -27 -60.62139 -21.87136 -64.5 -15.54487 -64.5 L 15.54487 -64.5 L 15.54487 -64.5 C 21.87136 -64.5 27 -60.6214 27 -55.83689 L 27 55.8369 L 27 55.8369 C 27 60.6214 21.87136 64.50001 15.54487 64.50001 L -15.54487 64.50001 L -15.54487 64.50001 C -21.87136 64.50001 -27 60.621410000000004 -27 55.8369 z" stroke-linecap="round" />
</g>
<g transform="matrix(1.39 -0.35 0.46 1.84 91.43 142.54)" id="htU6uMcX6p8wdct9pLB61"  >
<path style="stroke: rgb(0,0,0); stroke-width: 3; stroke-dasharray: none; stroke-linecap: butt; stroke-dashoffset: 0; stroke-linejoin: miter; stroke-miterlimit: 4; fill: none; fill-rule: nonzero; opacity: 1;" vector-effect="non-scaling-stroke"  transform=" translate(0, 0)" d="M -27 -55.83527 C -27 -60.620670000000004 -21.87136 -64.50001 -15.54487 -64.50001 L 15.54487 -64.50001 L 15.54487 -64.50001 C 21.87136 -64.50001 27 -60.62068 27 -55.83527 L 27 55.83526 L 27 55.83526 C 27 60.62066 21.87136 64.5 15.54487 64.5 L -15.54487 64.5 L -15.54487 64.5 C -21.87136 64.5 -27 60.62067 -27 55.83526 z" stroke-linecap="round" />
</g>
<g transform="matrix(1.1 0 0 0.98 293.61 292.29)" id="f5qGYmCT6liw0JBQgUR5P"  >
<path style="stroke: rgb(0,0,0); stroke-width: 3; stroke-dasharray: none; stroke-linecap: butt; stroke-dashoffset: 0; stroke-linejoin: miter; stroke-miterlimit: 4; fill: none; fill-rule: nonzero; opacity: 1;" vector-effect="non-scaling-stroke"  transform=" translate(0, 0)" d="M -27 -57.63684 C -27 -61.42726 -24.23933 -64.5 -20.83387 -64.5 L 20.833859999999998 -64.5 L 20.833859999999998 -64.5 C 24.23932 -64.5 26.999989999999997 -61.42726 26.999989999999997 -57.63684 L 26.999989999999997 57.636829999999996 L 26.999989999999997 57.636829999999996 C 26.999989999999997 61.427249999999994 24.239319999999996 64.49999 20.833859999999998 64.49999 L -20.83387 64.49999 L -20.83387 64.49999 C -24.239330000000002 64.49999 -27 61.427249999999994 -27 57.636829999999996 z" stroke-linecap="round" />
</g>
<g transform="matrix(3.52 0 0 0.59 118.67 350.48)" id="ljzFjaPkBq33vmBbOKTqo"  >
<path style="stroke: rgb(0,0,0); stroke-width: 3; stroke-dasharray: none; stroke-linecap: butt; stroke-dashoffset: 0; stroke-linejoin: miter; stroke-miterlimit: 4; fill: none; fill-rule: nonzero; opacity: 1;" vector-effect="non-scaling-stroke"  transform=" translate(0, 0)" d="M -27 -48.08291 C -27 -57.14982 -25.77291 -64.5 -24.25922 -64.5 L 24.25922 -64.5 L 24.25922 -64.5 C 25.77291 -64.5 27 -57.14982 27 -48.08291 L 27 48.08292 L 27 48.08292 C 27 57.14983 25.77291 64.50001 24.25922 64.50001 L -24.25922 64.50001 L -24.25922 64.50001 C -25.77291 64.50001 -27 57.14983 -27 48.08292 z" stroke-linecap="round" />
</g>
<g transform="matrix(1.1 0 0 0.99 365.69 292.49)" id="mhAdIIewmL4HexprvVPVs"  >
<path style="stroke: rgb(0,0,0); stroke-width: 3; stroke-dasharray: none; stroke-linecap: butt; stroke-dashoffset: 0; stroke-linejoin: miter; stroke-miterlimit: 4; fill: none; fill-rule: nonzero; opacity: 1;" vector-effect="non-scaling-stroke"  transform=" translate(0, 0)" d="M -27 -57.65862 C -27 -61.43701 -24.24331 -64.5 -20.84276 -64.5 L 20.84276 -64.5 L 20.84276 -64.5 C 24.243309999999997 -64.5 27 -61.43701 27 -57.65862 L 27 57.65863 L 27 57.65863 C 27 61.437020000000004 24.24331 64.50001 20.84276 64.50001 L -20.84276 64.50001 L -20.84276 64.50001 C -24.243309999999997 64.50001 -27 61.437020000000004 -27 57.65863 z" stroke-linecap="round" />
</g>
<g transform="matrix(1.51 0 0 1.89 213.83 379.11)" id="FrZ0AaqNtODl7CpOe24WO"  >
<path style="stroke: rgb(0,0,0); stroke-width: 3; stroke-dasharray: none; stroke-linecap: butt; stroke-dashoffset: 0; stroke-linejoin: miter; stroke-miterlimit: 4; fill: none; fill-rule: nonzero; opacity: 1;" vector-effect="non-scaling-stroke"  transform=" translate(0, 0)" d="M -113.5 -38.90971 C -113.5 -50.557559999999995 -101.69419 -60 -87.13097 -60 L 87.13098999999998 -60 L 87.13098999999998 -60 C 101.69419999999998 -60 113.50001999999998 -50.55755 113.50001999999998 -38.909710000000004 L 113.50001999999998 38.90970999999999 L 113.50001999999998 38.90970999999999 C 113.50001999999998 50.55755999999999 101.69420999999998 59.999999999999986 87.13098999999998 59.999999999999986 L -87.13097 59.999999999999986 L -87.13097 59.999999999999986 C -101.69418 59.999999999999986 -113.5 50.557549999999985 -113.5 38.90970999999999 z" stroke-linecap="round" />
</g>
</svg>