<?xml version="1.0" encoding="UTF-8" standalone="no" ?>
<!DOCTYPE svg PUBLIC "-//W3C//DTD SVG 1.1//EN" "http://www.w3.org/Graphics/SVG/1.1/DTD/svg11.dtd">
<svg xmlns="http://www.w3.org/2000/svg" xmlns:xlink="http://www.w3.org/1999/xlink" version="1.1" width="100" height="100" viewBox="0 0 500 500" xml:space="preserve">
<desc>Created with Fabric.js 4.6.0</desc>
<defs>
</defs>
<g transform="matrix(1.4 -0.35 0.38 1.51 105.41 176.78)" id="R47xYt4U1iayyg0qizZFm"  >
<path style="stroke: rgb(0,0,0); stroke-width: 3; stroke-dasharray: none; stroke-linecap: butt; stroke-dashoffset: 0; stroke-linejoin: miter; stroke-miterlimit: 4; fill: none; fill-rule: nonzero; opacity: 1;" vector-effect="non-scaling-stroke"  transform=" translate(0, 0)" d="M -27.99999 -63.27019 C -27.99999 -68.64381 -23.277250000000002 -73 -17.45145 -73 L 17.451459999999997 -73 L 17.451459999999997 -73 C 23.27726 -73 27.999999999999996 -68.64382 27.999999999999996 -63.27019 L 27.999999999999996 63.27019 L 27.999999999999996 63.27019 C 27.999999999999996 68.64381 23.27726 73 17.451459999999997 73 L -17.45145 73 L -17.45145 73 C -23.277250000000002 73 -27.99999 68.64382 -27.99999 63.27019 z" stroke-linecap="round" />
</g>
<g transform="matrix(1.29 -0.27 0.37 1.72 187.18 140.88)" id="f4l4bsjuSodWXZpaXCkKu"  >
<path style="stroke: rgb(0,0,0); stroke-width: 3; stroke-dasharray: none; stroke-linecap: butt; stroke-dashoffset: 0; stroke-linejoin: miter; stroke-miterlimit: 4; fill: none; fill-rule: nonzero; opacity: 1;" vector-effect="non-scaling-stroke"  transform=" translate(0, 0)" d="M -27.99999 -64.07629 C -27.99999 -69.00472 -22.6814 -73 -16.1206 -73 L 16.1206 -73 L 16.1206 -73 C 22.68141 -73 27.99999 -69.00472 27.99999 -64.07629 L 27.99999 64.07629 L 27.99999 64.07629 C 27.99999 69.00472 22.6814 73 16.1206 73 L -16.1206 73 L -16.1206 73 C -22.68141 73 -27.99999 69.00472 -27.99999 64.07629 z" stroke-linecap="round" />
</g>
<g transform="matrix(1.23 0.31 -0.32 1.29 402.45 194.55)" id="B5t4pZhCi0QwH4wylJ2-l"  >
<path style="stroke: rgb(0,0,0); stroke-width: 3; stroke-dasharray: none; stroke-linecap: butt; stroke-dashoffset: 0; stroke-linejoin: miter; stroke-miterlimit: 4; fill: none; fill-rule: nonzero; opacity: 1;" vector-effect="non-scaling-stroke"  transform=" translate(0, 0)" d="M -27.99999 -64.41788 C -27.99999 -69.15765999999999 -23.98767 -73 -19.03823 -73 L 19.038240000000002 -73 L 19.038240000000002 -73 C 23.98768 -73 28 -69.15765 28 -64.41788 L 28 64.41787 L 28 64.41787 C 28 69.15764999999999 23.98768 72.99999 19.038240000000002 72.99999 L -19.03823 72.99999 L -19.03823 72.99999 C -23.987669999999998 72.99999 -27.999989999999997 69.15764 -27.999989999999997 64.41787 z" stroke-linecap="round" />
</g>
<g transform="matrix(1.44 0.33 -0.35 1.52 322.24 165.54)" id="FJAWW_fFNFJfFiKMXp16j"  >
<path style="stroke: rgb(0,0,0); stroke-width: 3; stroke-dasharray: none; stroke-linecap: butt; stroke-dashoffset: 0; stroke-linejoin: miter; stroke-miterlimit: 4; fill: none; fill-rule: nonzero; opacity: 1;" vector-effect="non-scaling-stroke"  transform=" translate(0, 0)" d="M -27.99999 -63.01314 C -27.99999 -68.52873 -23.26907 -72.99999 -17.43318 -72.99999 L 17.4332 -72.99999 L 17.4332 -72.99999 C 23.26909 -72.99999 28.00001 -68.52871999999999 28.00001 -63.01313999999999 L 28.00001 63.01315000000001 L 28.00001 63.01315000000001 C 28.00001 68.52874000000001 23.26909 73.00000000000001 17.4332 73.00000000000001 L -17.43318 73.00000000000001 L -17.43318 73.00000000000001 C -23.26907 73.00000000000001 -27.99999 68.52873000000001 -27.99999 63.01315000000001 z" stroke-linecap="round" />
</g>
<g transform="matrix(1.76 0 0 1.76 252.64 361.46)" id="DKDWVrZ7wgaKsTHmWNznf"  >
<path style="stroke: rgb(0,0,0); stroke-width: 3; stroke-dasharray: none; stroke-linecap: butt; stroke-dashoffset: 0; stroke-linejoin: miter; stroke-miterlimit: 4; fill: none; fill-rule: nonzero; opacity: 1;" vector-effect="non-scaling-stroke"  transform=" translate(0, 0)" d="M -102.5 -32.52908 C -102.5 -45.76785 -91.76785 -56.5 -78.52908 -56.5 L 78.52909 -56.5 L 78.52909 -56.5 C 91.76786 -56.5 102.50001 -45.767849999999996 102.50001 -32.52908 L 102.50001 32.52908 L 102.50001 32.52908 C 102.50001 45.76785 91.76786 56.5 78.52909 56.5 L -78.52908 56.5 L -78.52908 56.5 C -91.76785 56.5 -102.5 45.767849999999996 -102.5 32.52908 z" stroke-linecap="round" />
</g>
<g transform="matrix(1.47 0 0 1.76 36.07 353.56)" id="J43lf-2EGAuqT4hI-1JA_"  >
<path style="stroke: rgb(0,0,0); stroke-width: 2; stroke-dasharray: none; stroke-linecap: butt; stroke-dashoffset: 0; stroke-linejoin: miter; stroke-miterlimit: 4; fill: none; fill-rule: nonzero; opacity: 1;" vector-effect="non-scaling-stroke"  transform=" translate(0, 0)" d="M -23 -45.32324 C -23 -49.83913 -18.63116 -53.49999 -13.24193 -53.49999 L 13.24192 -53.49999 L 13.24192 -53.49999 C 18.63116 -53.49999 22.99999 -49.83913 22.99999 -45.32324 L 22.99999 45.32325 L 22.99999 45.32325 C 22.99999 49.83914 18.63115 53.5 13.24192 53.5 L -13.24193 53.5 L -13.24193 53.5 C -18.63117 53.5 -23 49.83914 -23 45.32325 z" stroke-linecap="round" />
</g>
</svg>